<svg xmlns="http://www.w3.org/2000/svg" viewBox="0 0 309.25 329.99"><defs><style>.cls-1{fill:#3f3f3f;}.cls-2{fill:#a4a4a4;}</style></defs><title>Asset 1</title><g id="Layer_2" data-name="Layer 2"><g id="Layer_1-2" data-name="Layer 1"><path d="M0,133.82c0-12.69,2-24.91,3.12-37.19a7.54,7.54,0,0,1,1-2.73c2.81-5.15,19.46-11.82,25-10,2.76.94,4.34,0,5-2.7.89-3.62,3.34-5.69,6.58-7.25,21.48-10.31,42.89-20.81,64.43-31,7.49-3.55,15.34-6.33,23-9.61A4.23,4.23,0,0,1,134,35.45c1.37,2.53,3.07,2.17,5,1.42a52.49,52.49,0,0,0,7.2-3c11.87-6.63,24.88-10.73,36.93-16.93,2.52-1.3,4.87-2.63,6.14-5.41.6-1.3,1.94-2.07,3.33-2.81A110.51,110.51,0,0,1,211.9.45c3-.92,5-.49,7,1.77A34.57,34.57,0,0,1,224.09,10c9.62,19.28,19,38.68,28.79,57.88,12.22,24,22.76,48.72,32.61,73.77q9.92,25.23,21,50c4.9,10.86,2,21.34.25,32-1.09,6.57-7.23,7.92-11.91,10.3-30.78,15.61-61.54,31.26-92.6,46.3Q163.15,299.13,124.52,319c-6.84,3.5-13.77,6.75-20.71,10-5.27,2.48-10.76.29-13.86-5.59-8.45-16.06-16.69-32.24-25.25-48.24-15.68-29.3-30.06-59.26-44.87-89C13.14,172.71,7.18,158.91.88,145.28-.9,141.45.68,137.41,0,133.82Z"/><path class="cls-1" d="M6.88,131.9c1-9.41,2.11-18.8,3-28.22C10.18,100.21,12,98.28,15,97c1.82-.81,3.56-1.82,5.3-2.79,6.14-3.42,10.82-2.29,14.3,3.77,8.6,15,17,30.13,25.67,45.12,5,8.72,8.83,10.77,15.77,8.22,7.8-2.86,15.6-5.85,23.09-9.44,17.87-8.56,35.44-17.73,52.82-27.26,3.05-1.67,7-2.2,9.41-4.48,13.53-13.08,31.61-18.51,47-28.45C219,74.76,219.32,68,214.63,58c-5.46-11.62-11.77-22.77-18.08-33.93-2.93-5.18-2.3-7.66,2.95-10.35A57,57,0,0,1,205.39,11c7.66-2.88,8.41-2.55,12.55,4.65,1.25,2.19,1.53,3.91-.07,6.34-3.76,5.71-1.64,10.59,5.1,11.68,3.13.51,4.56,2.07,5.84,4.59C245.74,71.54,261,105.54,275.28,140c7.37,17.84,14.62,35.73,22.15,53.51,1.82,4.32,1.46,6.95-3.45,8a6.72,6.72,0,0,0-1.37.62c-12,5.67-13.51,9.41-7.59,21.32,2.08,4.19.27,5.41-3,7Q209,266.66,136.12,303c-10.11,5.06-19.79,11-29.79,16.27-7.41,3.93-8.24,3.59-12.11-4.1-10.92-21.72-22.09-43.32-32.53-65.27C50.52,226.42,38.44,203.41,27.17,180c-6.5-13.5-12.59-27.18-18.93-40.75C7.13,136.87,7.07,134.43,6.88,131.9Z"/><path class="cls-2" d="M40.08,88.09c.52-4.09,1.18-7.52,5.86-9.74,22-10.44,43.67-21.39,65.5-32.09,4.59-2.26,9.38-4.12,13.93-6.46,3-1.53,4.37-.66,5.77,2.13C139.19,58,147.25,74.13,154,90.84c1.36,3.33,3.25,6.45,4.93,9.66,1,2,1.26,3.39-1.32,4.7-7.93,4.07-15.81,8.26-23.5,12.76-18.59,10.9-38.62,18.64-58.33,27.09-3,1.26-4.25,1-6-2.29-8.83-16.22-18.22-32.14-27.32-48.22C41.34,92.57,39.86,90.63,40.08,88.09Z"/><path class="cls-1" d="M213.68,67.94c-.73,4.53-2.29,8.09-6.13,10.22-12.66,7-25.35,14-38,21-2.82,1.58-4.52,1.25-5.78-1.84-6.85-16.8-15.1-33-23.11-49.22-1.12-2.26-.91-3.55,1.74-4.49,14.8-5.26,28.26-13.4,42.39-20.09,6-2.84,6.34-2.92,9,2.94,5.87,12.86,14,24.63,18.65,38.07C212.92,65.82,213.37,67.06,213.68,67.94Z"/><path class="cls-1" d="M302,206.71c-1.1,5.16-2,10.24-3.3,15.2-.77,2.85-3.59,4.07-6.19,4.39s-3.38-2.29-4.19-4.26c-4.09-10-4-10.12,5.29-15.32,1.45-.81,3-1.49,4.39-2.36C301,202.51,301.81,204.14,302,206.71Z"/><path class="cls-1" d="M225.83,27.89c.15,1.9-.19,3.71-2.38,3.62-3.09-.13-4.76-2.23-5.11-5.17-.24-2.05.86-3.85,2.94-3.93C224.9,22.27,225,25.52,225.83,27.89Z"/><path d="M186.09,174.45c0,18.31-8.63,29.41-25,33-5.85,1.27-11.22-.7-16.53-2.58-22.55-8-29.78-28.92-23.28-46.11,5-13.15,15.11-21.68,29.83-22.08,13.41-.36,23.53,6,29.89,18C184.37,161.08,186.67,167.76,186.09,174.45Z"/><path d="M25,139.7c.09,4.12-2.6,5.54-6,5.71a6.79,6.79,0,0,1-6.84-7c0-3.91,1.95-6.27,6-6.4C21.72,131.92,25,135.64,25,139.7Z"/><path d="M220.12,56.52c.12-4,2.95-6.77,6.69-6.21a6.64,6.64,0,0,1,6,6.79c.13,3.31-3.65,6.77-6.84,6.62C222.46,63.55,220,60.53,220.12,56.52Z"/><path d="M101.9,118.7a3,3,0,0,1-1.44,3.28c-6.73,4.81-14.35,8-21.74,11.59-2.2,1.07-3.47-.68-4.42-2.21-5.37-8.67-10.73-17.34-14.51-26.89-1.58-4-3.76-7.72-5.7-11.55-.86-1.69-1.81-3.67-.3-5.09,4.4-4.15,6.35-10.84,12.94-12.68,2.24-.62,4.67-2.32,6.69.56.73,1,1.83.73,2.68.25,4.08-2.31,5.37.55,6.82,3.48,5.63,11.37,11.34,22.7,17,34.07C100.76,115.27,101.32,117.18,101.9,118.7Z"/><path d="M120.35,55.36c-1.91-1.55-2.8-4.21-3.67-6.73-.45-1.33,7-5.93,9.24-5.58,2.85.44,4,2.65,4.12,5.28C130.2,50.57,123.79,55.44,120.35,55.36Z"/><path class="cls-2" d="M157.09,201.93c-17.41.62-34.2-13.9-33-31.88,1.29-18.8,12.18-28.31,28.82-28.78,16.18-.46,28.69,16.59,29.11,33.08C182.41,188.22,169.81,204.24,157.09,201.93Z"/><path class="cls-1" d="M18.39,142.85c-2.92.22-4.44-1.29-4.5-4-.06-2.39,1.21-4.41,3.68-4.46,2.62-.05,5,1.39,5.22,4.28S21,142.64,18.39,142.85Z"/><path class="cls-1" d="M226.67,61.81c-3.43-.39-5-2.41-5.13-5-.2-3,2.34-4.38,4.86-4.46a4.3,4.3,0,0,1,4.4,4.43C230.92,59.72,228.64,60.92,226.67,61.81Z"/><path class="cls-1" d="M69.84,79.1c3,3.3,9.11,1.12,11.66,7.78,3.57,9.38,7.67,18.76,13.15,27.35,1.5,2.37,1,4-1.45,5.24q-2.45,1.22-4.91,2.39c-11.91,5.62-10.12,5.92-16.5-5.68-4.08-7.43-7.73-15.09-11.4-22.73C58,88.53,64.21,78.88,69.84,79.1Z"/><path class="cls-1" d="M127.88,47.92c-.51,2.79-3.09,2.88-5.18,3.5-1.3.39-2.51-.24-2.21-1.69.53-2.68,3.11-3.08,5.19-3.81C127.09,45.43,127.75,46.42,127.88,47.92Z"/><path d="M142.09,190c0-8.46,1.72-9.8,9.14-7.45,4.92,1.55,10.7,2.23,10.87,9.4.11,5.28-2.54,7.79-7.63,6.88-2.9-.52-5.74-1.34-8.6-2.06C141.75,195.72,141.83,192.55,142.09,190Z"/><path d="M152.7,179.91c-2.6,0-7.41-6.24-7.56-9.8C145,167.35,152,162,155.5,162c2.1,0,6.31,7.84,6.47,12C162.07,176.84,157.24,179.91,152.7,179.91Z"/><path class="cls-1" d="M146.16,188.69c0-2.08.52-3.58,3-3.6,3.39,0,9.56,3.29,9.32,5.33s-.58,4.09-3.36,4.17C150.7,194.73,146.16,191.78,146.16,188.69Z"/><path class="cls-1" d="M157.77,171.46c0,2.92-1.81,4.07-3.86,4-3-.06-4.12-2.8-4.45-5.16-.38-2.76,2.33-3.7,4.33-3.86C157.41,166.19,156.58,169.88,157.77,171.46Z"/></g></g></svg>