<?xml version="1.0" standalone="no"?>
<!DOCTYPE svg PUBLIC "-//W3C//DTD SVG 20010904//EN"
 "http://www.w3.org/TR/2001/REC-SVG-20010904/DTD/svg10.dtd">
<svg version="1.0" xmlns="http://www.w3.org/2000/svg"
 width="345.000000pt" height="356.000000pt" viewBox="0 0 345.000000 356.000000"
 preserveAspectRatio="xMidYMid meet">
<metadata>
Created by potrace 1.16, written by Peter Selinger 2001-2019
</metadata>
<g transform="translate(0.000000,356.000000) scale(0.100000,-0.100000)"
fill="#000000" stroke="none">
<path d="M2195 3491 c-86 -31 -169 -78 -191 -108 -15 -20 -56 -44 -130 -77
-60 -27 -165 -75 -234 -106 -165 -76 -158 -75 -182 -45 -11 14 -25 25 -32 25
-22 0 -273 -107 -442 -189 -509 -246 -503 -243 -518 -282 -16 -40 -35 -52 -57
-38 -21 13 -57 11 -87 -5 -15 -8 -52 -26 -84 -39 -31 -14 -63 -36 -72 -49 -18
-27 -46 -283 -46 -417 0 -86 0 -86 77 -256 173 -381 802 -1617 847 -1663 54
-56 18 -70 931 382 462 229 899 447 970 484 72 37 149 76 172 87 52 24 68 57
87 182 19 116 12 146 -79 353 -36 81 -65 150 -65 153 0 10 -246 596 -288 687
-102 221 -436 884 -459 910 -28 34 -47 36 -118 11z m-682 -568 c52 -109 105
-223 117 -253 12 -30 37 -86 56 -124 22 -42 32 -72 26 -78 -9 -9 -123 -71
-377 -203 -132 -69 -467 -215 -494 -215 -6 0 -15 8 -18 18 -4 9 -47 87 -96
172 -193 333 -210 368 -202 417 l6 44 142 71 c263 133 712 347 728 347 11 1
46 -61 112 -196z m244 -855 c54 -25 118 -96 152 -168 37 -79 36 -193 -1 -266
-33 -63 -108 -131 -155 -140 -54 -10 -153 2 -203 24 -114 52 -180 146 -188
270 -4 68 -2 77 32 147 28 56 48 82 79 103 92 63 192 74 284 30z"/>
<path d="M770 2748 c-25 -13 -50 -33 -56 -45 -6 -13 -23 -34 -37 -47 -15 -14
-27 -32 -27 -41 0 -8 33 -84 74 -168 76 -155 148 -277 165 -277 36 0 251 122
251 143 0 10 -205 436 -215 446 -2 2 -17 -1 -34 -7 -23 -8 -32 -7 -42 4 -16
19 -27 18 -79 -8z"/>
<path d="M1626 1867 c-58 -33 -63 -46 -36 -101 27 -56 39 -63 90 -47 58 17 65
31 45 93 -29 87 -37 91 -99 55z"/>
<path d="M1554 1683 c-11 -11 -14 -31 -12 -72 3 -56 3 -56 43 -69 109 -36 155
-23 155 41 0 46 -23 73 -78 90 -78 25 -92 26 -108 10z"/>
</g>
</svg>
